<svg width="48" height="48" viewBox="0 0 48 48" fill="none" xmlns="http://www.w3.org/2000/svg">
<path d="M39.919 31.658L31.619 20.883C31.2174 20.3571 30.9999 19.7137 31 19.052V7.81601C31.6667 7.58118 32.2287 7.11799 32.5866 6.50847C32.9445 5.89895 33.0752 5.18243 32.9554 4.48583C32.8356 3.78922 32.4732 3.15748 31.9322 2.7025C31.3913 2.24752 30.7068 1.99867 30 2.00001H18C17.2932 1.99867 16.6087 2.24752 16.0678 2.7025C15.5268 3.15748 15.1644 3.78922 15.0446 4.48583C14.9248 5.18243 15.0555 5.89895 15.4134 6.50847C15.7713 7.11799 16.3333 7.58118 17 7.81601V19.052C16.999 19.7142 16.78 20.3576 16.377 20.883L8.077 31.658C7.06186 32.9766 6.43639 34.5533 6.27147 36.2092C6.10655 37.8651 6.40879 39.5342 7.14392 41.0271C7.87904 42.5201 9.01767 43.7772 10.4308 44.6562C11.8438 45.5351 13.4749 46.0006 15.139 46H32.861C34.5248 45.9999 36.1553 45.5338 37.5678 44.6546C38.9803 43.7754 40.1183 42.5181 40.853 41.0253C41.5876 39.5325 41.8895 37.8638 41.7244 36.2082C41.5594 34.5526 40.9339 32.9764 39.919 31.658ZM18 4.00001H30C30.2652 4.00001 30.5196 4.10536 30.7071 4.2929C30.8946 4.48044 31 4.73479 31 5.00001C31 5.26522 30.8946 5.51958 30.7071 5.70711C30.5196 5.89465 30.2652 6.00001 30 6.00001H29C28.7348 6.00001 28.4804 6.10536 28.2929 6.2929C28.1054 6.48044 28 6.73479 28 7.00001C28 7.26522 28.1054 7.51958 28.2929 7.70711C28.4804 7.89465 28.7348 8.00001 29 8.00001V19.052C29.0029 20.1543 29.3676 21.2251 30.038 22.1L30.738 23.008H17.262L17.962 22.1C18.4327 21.4818 18.7537 20.7631 18.9 20H21C21.2652 20 21.5196 19.8946 21.7071 19.7071C21.8946 19.5196 22 19.2652 22 19C22 18.7348 21.8946 18.4804 21.7071 18.2929C21.5196 18.1054 21.2652 18 21 18H19V16H21C21.2652 16 21.5196 15.8946 21.7071 15.7071C21.8946 15.5196 22 15.2652 22 15C22 14.7348 21.8946 14.4804 21.7071 14.2929C21.5196 14.1054 21.2652 14 21 14H19V12H21C21.2652 12 21.5196 11.8946 21.7071 11.7071C21.8946 11.5196 22 11.2652 22 11C22 10.7348 21.8946 10.4804 21.7071 10.2929C21.5196 10.1054 21.2652 10 21 10H19V8.00001H24C24.2652 8.00001 24.5196 7.89465 24.7071 7.70711C24.8946 7.51958 25 7.26522 25 7.00001C25 6.73479 24.8946 6.48044 24.7071 6.2929C24.5196 6.10536 24.2652 6.00001 24 6.00001H18C17.7348 6.00001 17.4804 5.89465 17.2929 5.70711C17.1054 5.51958 17 5.26522 17 5.00001C17 4.73479 17.1054 4.48044 17.2929 4.2929C17.4804 4.10536 17.7348 4.00001 18 4.00001V4.00001ZM39.174 39.9C38.6303 41.1202 37.7447 42.1568 36.6244 42.8845C35.504 43.6121 34.1969 43.9995 32.861 44H15.139C13.8488 43.9999 12.5844 43.6384 11.4891 42.9565C10.3938 42.2747 9.51128 41.2997 8.94162 40.1421C8.37196 38.9844 8.13788 37.6904 8.26591 36.4065C8.39394 35.1227 8.87895 33.9004 9.666 32.878L15.722 25.011H32.278L38.334 32.878C39.0945 33.8638 39.5741 35.037 39.722 36.2732C39.8699 37.5094 39.6805 38.7627 39.174 39.9Z" fill="#4fc4db" id="id_101"></path>
<path d="M31 33C30.2089 33 29.4355 33.2346 28.7777 33.6741C28.1199 34.1136 27.6072 34.7384 27.3045 35.4693C27.0017 36.2002 26.9225 37.0044 27.0769 37.7804C27.2312 38.5563 27.6122 39.269 28.1716 39.8284C28.731 40.3878 29.4437 40.7688 30.2196 40.9231C30.9956 41.0775 31.7998 40.9983 32.5307 40.6955C33.2616 40.3928 33.8864 39.8801 34.3259 39.2223C34.7654 38.5645 35 37.7911 35 37C35 35.9391 34.5786 34.9217 33.8284 34.1716C33.0783 33.4214 32.0609 33 31 33V33ZM31 39C30.6044 39 30.2178 38.8827 29.8889 38.6629C29.56 38.4432 29.3036 38.1308 29.1522 37.7654C29.0009 37.3999 28.9613 36.9978 29.0384 36.6098C29.1156 36.2219 29.3061 35.8655 29.5858 35.5858C29.8655 35.3061 30.2219 35.1156 30.6098 35.0384C30.9978 34.9613 31.3999 35.0009 31.7654 35.1522C32.1308 35.3036 32.4432 35.56 32.6629 35.8889C32.8827 36.2178 33 36.6044 33 37C33 37.5304 32.7893 38.0391 32.4142 38.4142C32.0391 38.7893 31.5304 39 31 39Z" fill="#4fc4db" id="id_102"></path>
<path d="M23 27C22.4067 27 21.8266 27.1759 21.3333 27.5056C20.8399 27.8352 20.4554 28.3038 20.2284 28.8519C20.0013 29.4001 19.9419 30.0033 20.0576 30.5853C20.1734 31.1672 20.4591 31.7018 20.8787 32.1213C21.2982 32.5409 21.8328 32.8266 22.4147 32.9424C22.9967 33.0581 23.5999 32.9987 24.1481 32.7716C24.6962 32.5446 25.1648 32.1601 25.4944 31.6667C25.8241 31.1734 26 30.5933 26 30C26 29.2044 25.6839 28.4413 25.1213 27.8787C24.5587 27.3161 23.7957 27 23 27ZM23 31C22.8022 31 22.6089 30.9414 22.4444 30.8315C22.28 30.7216 22.1518 30.5654 22.0761 30.3827C22.0004 30.2 21.9806 29.9989 22.0192 29.8049C22.0578 29.6109 22.153 29.4327 22.2929 29.2929C22.4327 29.153 22.6109 29.0578 22.8049 29.0192C22.9989 28.9806 23.2 29.0004 23.3827 29.0761C23.5654 29.1518 23.7216 29.28 23.8315 29.4444C23.9414 29.6089 24 29.8022 24 30C24 30.2652 23.8946 30.5196 23.7071 30.7071C23.5196 30.8946 23.2652 31 23 31Z" fill="#4cc3db" id="id_103"></path>
<path d="M16 33C15.4067 33 14.8266 33.1759 14.3333 33.5056C13.8399 33.8352 13.4554 34.3038 13.2284 34.852C13.0013 35.4001 12.9419 36.0033 13.0576 36.5853C13.1734 37.1672 13.4591 37.7018 13.8787 38.1213C14.2982 38.5409 14.8328 38.8266 15.4147 38.9424C15.9967 39.0581 16.5999 38.9987 17.1481 38.7716C17.6962 38.5446 18.1648 38.1601 18.4944 37.6667C18.8241 37.1734 19 36.5933 19 36C19 35.2044 18.6839 34.4413 18.1213 33.8787C17.5587 33.3161 16.7957 33 16 33ZM16 37C15.8022 37 15.6089 36.9414 15.4444 36.8315C15.28 36.7216 15.1518 36.5654 15.0761 36.3827C15.0004 36.2 14.9806 35.9989 15.0192 35.8049C15.0578 35.6109 15.153 35.4327 15.2929 35.2929C15.4327 35.153 15.6109 35.0578 15.8049 35.0192C15.9989 34.9806 16.2 35.0004 16.3827 35.0761C16.5654 35.1518 16.7216 35.28 16.8315 35.4444C16.9414 35.6089 17 35.8022 17 36C17 36.2652 16.8946 36.5196 16.7071 36.7071C16.5196 36.8946 16.2652 37 16 37Z" fill="#49bfd6" id="id_104"></path>
</svg>