<svg width="64" height="64" viewBox="0 0 64 64" fill="none" xmlns="http://www.w3.org/2000/svg">
<path d="M20.8601 26.3601V57.0701L35.2901 59.7101H58.5001L60.1401 55.8601V26.3601L56.5001 23.7901H42.8601L46.3601 9.14014L43.0001 4.14014L36.7901 4.50014L34.0701 8.36014L29.9301 20.5001L23.0001 26.1401L20.8601 26.3601Z" fill="#ffffff" id="id_103"></path>
<path d="M56.05 22.36H44.36L47.36 11.87C47.853 10.0275 47.6094 8.06548 46.6809 6.39946C45.7524 4.73345 44.2118 3.49429 42.3855 2.94445C40.5591 2.3946 38.5905 2.57725 36.8965 3.4537C35.2025 4.33016 33.9162 5.83159 33.31 7.63999L31.11 14.69C30.4412 16.8297 29.3544 18.8154 27.9125 20.532C26.4705 22.2486 24.7022 23.6619 22.71 24.69V23.9C22.71 23.5022 22.552 23.1206 22.2707 22.8393C21.9894 22.558 21.6079 22.4 21.21 22.4H4.00003C3.60221 22.4 3.22068 22.558 2.93937 22.8393C2.65807 23.1206 2.50003 23.5022 2.50003 23.9V60C2.49871 60.1978 2.53654 60.3939 2.61133 60.5771C2.68612 60.7602 2.7964 60.9268 2.93582 61.0671C3.07524 61.2075 3.24105 61.3189 3.42369 61.3949C3.60633 61.4709 3.80221 61.51 4.00003 61.51H21.21C21.6079 61.51 21.9894 61.352 22.2707 61.0707C22.552 60.7893 22.71 60.4078 22.71 60.01V59C27.979 60.6679 33.4734 61.5145 39 61.51H56.1C57.5455 61.51 58.9317 60.9358 59.9538 59.9137C60.9758 58.8916 61.55 57.5054 61.55 56.06V27.81C61.5487 27.0904 61.4052 26.3782 61.1277 25.7143C60.8503 25.0504 60.4443 24.4479 59.9332 23.9415C59.4221 23.435 58.8159 23.0345 58.1495 22.7631C57.4831 22.4917 56.7696 22.3547 56.05 22.36V22.36ZM19.71 58.51H5.50003V25.36H19.71V58.51ZM58.5 56.06C58.5 56.7098 58.2419 57.3329 57.7824 57.7924C57.323 58.2519 56.6998 58.51 56.05 58.51H39C33.4788 58.5135 27.9938 57.6184 22.76 55.86V28C25.419 26.8666 27.8008 25.1702 29.7412 23.0278C31.6816 20.8854 33.1346 18.3479 34 15.59L36.2 8.58999C36.6048 7.59616 37.3635 6.78753 38.3295 6.32024C39.2956 5.85295 40.4005 5.76012 41.4309 6.05969C42.4614 6.35926 43.3443 7.02997 43.9093 7.94234C44.4742 8.8547 44.6811 9.94403 44.49 11L40.93 23.45C40.8667 23.6729 40.8559 23.9075 40.8984 24.1353C40.9409 24.3631 41.0357 24.578 41.1752 24.763C41.3147 24.9481 41.4952 25.0983 41.7025 25.2018C41.9098 25.3054 42.1383 25.3596 42.37 25.36H56.05C56.6998 25.36 57.323 25.6181 57.7824 26.0776C58.2419 26.537 58.5 27.1602 58.5 27.81V56.06Z" fill="#fa0505" id="id_104"></path>
</svg>